<svg width="100" height="100" viewBox="0 0 100 100" fill="none" xmlns="http://www.w3.org/2000/svg">
<g clip-path="url(#clip0_1_2)">
<path d="M58.7318 41.6504C70.7575 53.0005 80.1277 64.5025 85.6037 73.811C88.3602 78.4967 89.9734 82.3644 90.5707 85.2156C91.0907 87.698 90.6926 88.5518 90.6061 88.7043C90.4504 88.7916 89.5772 89.1968 86.9977 88.7538C84.035 88.245 79.9969 86.7788 75.0854 84.2272C65.3283 79.1581 53.2094 70.3781 41.1838 59.0279C29.1582 47.6778 19.788 36.1758 14.3119 26.8672C11.5554 22.1816 9.94229 18.3139 9.345 15.4627C8.82497 12.9802 9.22306 12.1265 9.30956 11.974C9.46522 11.8867 10.3384 11.4815 12.918 11.9245C15.8807 12.4333 19.9188 13.8995 24.8303 16.4511C34.5874 21.5201 46.7062 30.3002 58.7318 41.6504Z" stroke="#1B7E8B" stroke-width="10.475"/>
<g filter="url(#filter0_i_1_2)">
<path fill-rule="evenodd" clip-rule="evenodd" d="M60.8653 88.1089C60.8658 93.8252 56.2322 98.4596 50.5159 98.4601L48.824 98.4603C43.1077 98.4607 38.4733 93.8271 38.4728 88.1108L38.4708 63.7193L63.4401 38.7457L87.8316 38.7436C93.5479 38.7432 98.1823 43.3768 98.1828 49.0931L98.183 50.7849C98.1834 56.5013 93.5498 61.1356 87.8335 61.1361L60.863 61.1384L60.8653 88.1089ZM60.861 36.7507L60.8588 11.7754C60.8583 6.05914 56.224 1.42554 50.5076 1.42602L48.8158 1.42617C43.0995 1.42666 38.4659 6.06105 38.4663 11.7774L38.4686 38.7479L11.4981 38.7501C5.78184 38.7506 1.14823 43.385 1.14872 49.1013L1.14887 50.7932C1.14935 56.5095 5.78374 61.1431 11.5 61.1426L36.4753 61.1405L60.861 36.7507Z" fill="url(#paint0_linear_1_2)"/>
</g>
<g filter="url(#filter1_i_1_2)">
<path fill-rule="evenodd" clip-rule="evenodd" d="M60.8653 88.1089C60.8658 93.8252 56.2322 98.4596 50.5159 98.4601L48.824 98.4603C43.1077 98.4607 38.4733 93.8271 38.4728 88.1108L38.4708 63.7193L63.4401 38.7457L87.8316 38.7436C93.5479 38.7432 98.1823 43.3768 98.1828 49.0931L98.183 50.7849C98.1834 56.5013 93.5498 61.1356 87.8335 61.1361L60.863 61.1384L60.8653 88.1089ZM60.861 36.7507L60.8588 11.7754C60.8583 6.05914 56.224 1.42554 50.5076 1.42602L48.8158 1.42617C43.0995 1.42666 38.4659 6.06105 38.4663 11.7774L38.4686 38.7479L11.4981 38.7501C5.78184 38.7506 1.14823 43.385 1.14872 49.1013L1.14887 50.7932C1.14935 56.5095 5.78374 61.1431 11.5 61.1426L36.4753 61.1405L60.861 36.7507Z" fill="url(#paint1_linear_1_2)"/>
</g>
<g filter="url(#filter2_d_1_2)">
<path d="M16.7048 30.493C22.1835 39.0172 29.9211 48.5528 40.1375 58.1954C47.8794 65.5024 56.8207 72.7845 65.7307 78.5808" stroke="url(#paint2_linear_1_2)" stroke-width="10.475"/>
</g>
<path d="M88.5843 79.8C89.5296 82.8158 95.4668 92.5109 84.6562 88.3109C70.4674 83.3682 53.5124 70.819 40.1374 58.1953C25.8584 44.7183 16.4215 31.4502 11.2268 20.8605C3.64238 5.39922 16.8394 12.8819 20.4968 14.3312" stroke="url(#paint3_linear_1_2)" stroke-width="10.475" stroke-linecap="round"/>
</g>
<defs>
<filter id="filter0_i_1_2" x="-1.0063" y="-0.728961" width="99.1893" height="99.1892" filterUnits="userSpaceOnUse" color-interpolation-filters="sRGB">
<feFlood flood-opacity="0" result="BackgroundImageFix"/>
<feBlend mode="normal" in="SourceGraphic" in2="BackgroundImageFix" result="shape"/>
<feColorMatrix in="SourceAlpha" type="matrix" values="0 0 0 0 0 0 0 0 0 0 0 0 0 0 0 0 0 0 127 0" result="hardAlpha"/>
<feOffset dx="-2.15499" dy="-2.15499"/>
<feGaussianBlur stdDeviation="1.61624"/>
<feComposite in2="hardAlpha" operator="arithmetic" k2="-1" k3="1"/>
<feColorMatrix type="matrix" values="0 0 0 0 0.431667 0 0 0 0 0.775383 0 0 0 0 0.925 0 0 0 0.6 0"/>
<feBlend mode="normal" in2="shape" result="effect1_innerShadow_1_2"/>
</filter>
<filter id="filter1_i_1_2" x="1.14868" y="1.42603" width="97.0343" height="99.1892" filterUnits="userSpaceOnUse" color-interpolation-filters="sRGB">
<feFlood flood-opacity="0" result="BackgroundImageFix"/>
<feBlend mode="normal" in="SourceGraphic" in2="BackgroundImageFix" result="shape"/>
<feColorMatrix in="SourceAlpha" type="matrix" values="0 0 0 0 0 0 0 0 0 0 0 0 0 0 0 0 0 0 127 0" result="hardAlpha"/>
<feOffset dy="2.15499"/>
<feGaussianBlur stdDeviation="1.61624"/>
<feComposite in2="hardAlpha" operator="arithmetic" k2="-1" k3="1"/>
<feColorMatrix type="matrix" values="0 0 0 0 0.394062 0 0 0 0 0.690302 0 0 0 0 0.975 0 0 0 0.7 0"/>
<feBlend mode="normal" in2="shape" result="effect1_innerShadow_1_2"/>
</filter>
<filter id="filter2_d_1_2" x="8.94867" y="27.7732" width="62.9899" height="62.6223" filterUnits="userSpaceOnUse" color-interpolation-filters="sRGB">
<feFlood flood-opacity="0" result="BackgroundImageFix"/>
<feColorMatrix in="SourceAlpha" type="matrix" values="0 0 0 0 0 0 0 0 0 0 0 0 0 0 0 0 0 0 127 0" result="hardAlpha"/>
<feOffset dy="4.30997"/>
<feGaussianBlur stdDeviation="1.61624"/>
<feComposite in2="hardAlpha" operator="out"/>
<feColorMatrix type="matrix" values="0 0 0 0 0.109462 0 0 0 0 0.154646 0 0 0 0 0.270833 0 0 0 0.2 0"/>
<feBlend mode="normal" in2="BackgroundImageFix" result="effect1_dropShadow_1_2"/>
<feBlend mode="normal" in="SourceGraphic" in2="effect1_dropShadow_1_2" result="shape"/>
</filter>
<linearGradient id="paint0_linear_1_2" x1="98.187" y1="98.4561" x2="49.6617" y2="1.4261" gradientUnits="userSpaceOnUse">
<stop offset="0.355" stop-color="#0D4682"/>
<stop offset="1" stop-color="#54ABD0"/>
</linearGradient>
<linearGradient id="paint1_linear_1_2" x1="98.187" y1="98.4561" x2="49.6617" y2="1.4261" gradientUnits="userSpaceOnUse">
<stop offset="0.355" stop-color="#185C9E"/>
<stop offset="1" stop-color="#3A80C4"/>
</linearGradient>
<linearGradient id="paint2_linear_1_2" x1="41.3266" y1="58.9105" x2="53.6277" y2="45.8774" gradientUnits="userSpaceOnUse">
<stop stop-color="#1FBBBC"/>
<stop offset="0.81" stop-color="#1B7E8B"/>
</linearGradient>
<linearGradient id="paint3_linear_1_2" x1="41.3265" y1="58.9104" x2="53.6276" y2="45.8773" gradientUnits="userSpaceOnUse">
<stop stop-color="#1FBBBC"/>
<stop offset="0.75" stop-color="#1B7E8B"/>
</linearGradient>
<clipPath id="clip0_1_2">
<rect width="100" height="100" fill="white"/>
</clipPath>
</defs>
</svg>
